<svg width="200" height="200" viewBox="0 0 200 200" fill="none" xmlns="http://www.w3.org/2000/svg">
<g clip-path="url(#clip0_6322_404)">
<circle cx="100" cy="100" r="100" fill="#F9F9F9"/>
<path d="M34.64 124.32V65.76L37.76 66V124.32C37.76 128.48 38.52 131.56 40.04 133.56C41.56 135.56 43.96 136.56 47.24 136.56C47.4 136.56 47.48 136.8 47.48 137.28C47.48 137.76 47.4 138 47.24 138C45.56 138 43.84 137.96 42.08 137.88C40.4 137.8 38.48 137.76 36.32 137.76C34.24 137.76 32.2 137.8 30.2 137.88C28.2 137.96 26.32 138 24.56 138C24.4 138 24.32 137.76 24.32 137.28C24.32 136.8 24.4 136.56 24.56 136.56C28.08 136.56 30.64 135.56 32.24 133.56C33.84 131.56 34.64 128.48 34.64 124.32ZM95.36 139.56C95.36 139.72 95.16 139.8 94.76 139.8C94.44 139.88 94.2 139.88 94.04 139.8L37.52 72.84C34.72 69.56 32.28 67.36 30.2 66.24C28.2 65.04 26.2 64.44 24.2 64.44C24.04 64.44 23.96 64.2 23.96 63.72C23.96 63.24 24.04 63 24.2 63C25.72 63 27.24 63.04 28.76 63.12C30.28 63.2 31.68 63.24 32.96 63.24C34.88 63.24 36.64 63.2 38.24 63.12C39.84 63.04 41.04 63 41.84 63C42.88 63 43.64 63.48 44.12 64.44C44.6 65.32 45.76 66.92 47.6 69.24L94.4 125.64L95.36 139.56ZM95.36 76.8V139.56L92.36 135.84V76.8C92.36 72.64 91.6 69.56 90.08 67.56C88.64 65.48 86.28 64.44 83 64.44C82.84 64.44 82.76 64.2 82.76 63.72C82.76 63.24 82.84 63 83 63C84.68 63 86.4 63.08 88.16 63.24C89.92 63.32 91.84 63.36 93.92 63.36C95.92 63.36 97.88 63.32 99.8 63.24C101.72 63.08 103.52 63 105.2 63C105.36 63 105.44 63.24 105.44 63.72C105.44 64.2 105.36 64.44 105.2 64.44C101.84 64.44 99.36 65.48 97.76 67.56C96.16 69.56 95.36 72.64 95.36 76.8ZM138.136 72.84V127.8C138.136 129.88 138.336 131.48 138.736 132.6C139.216 133.64 140.056 134.36 141.256 134.76C142.536 135.08 144.416 135.24 146.896 135.24H157.096C162.296 135.24 166.536 133.72 169.816 130.68C173.096 127.64 175.256 123.6 176.296 118.56C176.296 118.32 176.496 118.24 176.896 118.32C177.376 118.32 177.616 118.44 177.616 118.68C177.376 121 177.136 123.8 176.896 127.08C176.656 130.36 176.536 133.4 176.536 136.2C176.536 137.4 175.936 138 174.736 138H118.816C118.656 138 118.576 137.76 118.576 137.28C118.576 136.8 118.656 136.56 118.816 136.56C121.616 136.56 123.696 136.36 125.056 135.96C126.496 135.56 127.456 134.76 127.936 133.56C128.416 132.36 128.656 130.6 128.656 128.28V72.72C128.656 70.4 128.416 68.68 127.936 67.56C127.456 66.36 126.496 65.56 125.056 65.16C123.696 64.68 121.616 64.44 118.816 64.44C118.656 64.44 118.576 64.2 118.576 63.72C118.576 63.24 118.656 63 118.816 63C120.736 63 122.936 63.08 125.416 63.24C127.976 63.32 130.616 63.36 133.336 63.36C136.216 63.36 138.856 63.32 141.256 63.24C143.736 63.08 145.936 63 147.856 63C148.016 63 148.096 63.24 148.096 63.72C148.096 64.2 148.016 64.44 147.856 64.44C145.056 64.44 142.976 64.68 141.616 65.16C140.256 65.56 139.336 66.36 138.856 67.56C138.376 68.76 138.136 70.52 138.136 72.84Z" fill="#161616"/>
</g>
<defs>
<clipPath id="clip0_6322_404">
<rect width="200" height="200" fill="white"/>
</clipPath>
</defs>
</svg>
