<svg width="200" height="200" viewBox="0 0 200 200" fill="none" xmlns="http://www.w3.org/2000/svg">
<circle cx="100" cy="100" r="100" fill="#F9F9F9"/>
<path d="M144.708 136.055C151.299 137.169 157.19 137.283 161.143 136.4C163.409 135.901 165.83 134.731 167.782 133.339C168.758 132.643 169.617 131.892 170.279 131.143C170.942 130.393 171.408 129.646 171.601 128.957C171.814 128.208 171.938 127.642 171.975 127.261C171.993 127.07 171.99 126.926 171.966 126.829C171.942 126.732 171.899 126.686 171.841 126.68C171.78 126.673 171.697 126.709 171.589 126.794C171.482 126.878 171.354 127.01 171.205 127.188C170.982 127.454 170.715 127.826 170.402 128.303L170.075 128.814C167.436 133.005 163.516 135.544 158.511 136.312C156.318 136.639 152.895 136.523 148.911 136.043C144.927 135.563 140.38 134.717 135.939 133.584C133.903 133.065 128.804 131.509 124.166 130.035C121.847 129.298 119.643 128.582 117.994 128.025C117.17 127.747 116.484 127.509 115.992 127.328C115.747 127.238 115.549 127.162 115.407 127.103C115.336 127.073 115.279 127.047 115.236 127.025C115.194 127.005 115.164 126.987 115.15 126.974L115.148 126.971C115.144 126.964 115.143 126.956 115.143 126.948C115.142 126.94 115.143 126.93 115.146 126.92C115.15 126.899 115.158 126.872 115.171 126.84C115.196 126.776 115.238 126.688 115.294 126.581C115.407 126.366 115.58 126.068 115.798 125.708C116.234 124.987 116.855 124.016 117.553 122.96C122.243 115.931 126.042 107.366 131.315 92.1533C136.24 77.9775 139.575 71.4827 144.772 65.9102C146.964 63.566 148.982 61.9987 151.199 61.0469C153.417 60.095 155.833 59.7588 158.819 59.874C161.651 59.9893 163.786 60.4796 165.214 61.3457C166.643 62.2124 167.363 63.4557 167.363 65.0742C167.363 66.5579 166.517 68.3473 165.179 70.0146C163.84 71.6823 162.007 73.2297 160.027 74.2295V74.2305C159.117 74.6719 158.499 75.1406 158.2 75.5889C158.051 75.8128 157.983 76.0311 157.996 76.2373C158.009 76.443 158.103 76.6391 158.285 76.8193C158.334 76.8631 158.416 76.8773 158.531 76.8604C158.646 76.8435 158.789 76.796 158.958 76.7207C159.295 76.57 159.73 76.3094 160.222 75.9639C161.205 75.273 162.415 74.2456 163.539 73.0938C166.368 70.2139 167.722 67.605 167.723 64.998C167.723 63.6363 167.442 62.5627 166.8 61.6533C166.157 60.7438 165.151 59.9962 163.698 59.2861C162.671 58.7678 161.994 58.4801 161.09 58.3076C160.411 58.1781 159.604 58.1131 158.425 58.0645L157.112 58.0195C154.476 57.9811 152.035 58.1346 150.796 58.4414C145.605 59.7466 141.575 62.8563 137.893 68.3477C134.87 72.9556 133.823 75.5281 130.334 87.3213C125.604 103.341 124.557 106.377 121.493 113.6C120.698 115.483 119.418 118.029 118.153 120.329C116.888 122.629 115.637 124.685 114.899 125.589L114.047 126.665L114.041 126.672L114.033 126.67L109.458 125.709H109.457C105.445 124.864 102.577 124.557 100.477 124.84C98.3768 125.123 97.0433 125.995 96.0957 127.509C95.1569 129.024 94.8695 130.471 95.0791 131.735C95.2888 133 95.9954 134.083 97.0469 134.871C99.1503 136.447 102.634 136.842 106.275 135.134C108.483 134.136 110.148 132.64 113.366 128.952L114.529 127.646L114.535 127.639L114.544 127.642L124.354 130.792C135.83 134.441 137.226 134.826 144.708 136.055ZM106.676 133.237C104.054 134.738 101.111 134.507 99.3232 133.434C98.4295 132.897 97.8231 132.149 97.6914 131.299C97.5596 130.448 97.9036 129.5 98.9043 128.566C99.8767 127.661 101.48 127.065 103.487 126.801C105.495 126.536 107.911 126.604 110.51 127.026C111.13 127.122 111.722 127.238 112.178 127.349C112.406 127.404 112.6 127.458 112.747 127.508C112.821 127.533 112.883 127.556 112.932 127.579C112.98 127.602 113.016 127.624 113.037 127.645C113.065 127.672 113.065 127.715 113.051 127.765C113.036 127.815 113.004 127.877 112.957 127.949C112.862 128.094 112.706 128.282 112.502 128.502C112.094 128.942 111.496 129.509 110.817 130.104C109.46 131.296 107.782 132.603 106.676 133.237Z" fill="#161616" stroke="#161616" stroke-width="0.0278383"/>
<path d="M80.4316 165.981C80.5289 165.994 80.5961 165.981 80.6328 165.944C80.6344 165.943 80.6373 165.937 80.6387 165.924C80.6399 165.912 80.6398 165.895 80.6377 165.874C80.6333 165.831 80.6223 165.772 80.6045 165.699C80.569 165.553 80.508 165.352 80.4277 165.108C80.3474 164.865 80.2473 164.579 80.1338 164.267L79.7588 163.263C76.5218 155.336 76.3974 145.709 79.3018 135.668C81.2856 128.939 86.1867 118.162 91.3379 109.15L92.3711 107.373C98.8421 96.5051 100.666 92.6899 102.325 86.3867V86.3857C103.652 81.4926 103.444 76.6023 101.787 73.7861C101.331 72.9987 100.928 72.45 100.411 71.9951C99.8941 71.5402 99.2626 71.1782 98.3506 70.7637C97.3139 70.2868 96.6411 70.0282 95.8291 69.9092C95.0167 69.7902 94.0638 69.8106 92.4668 69.8936C88.7355 70.1423 83.1371 71.7177 79.2393 73.708C75.0931 75.8226 68.208 81.5879 63.8945 86.6064L61.7793 89.0947L61.7549 89.0811L63.207 85.1816C66.4837 76.5128 67.2704 70.0456 65.7373 65.4043C64.7843 62.6073 63.0545 60.5569 60.709 59.335C58.3633 58.1129 55.4006 57.7181 51.9805 58.2363C42.3605 59.6876 32.574 66.1988 27.7227 74.4502C27.3806 75.0307 27.1609 75.4401 27.0518 75.6855C27.0246 75.7467 27.0037 75.7973 26.9902 75.8379C26.9766 75.8789 26.9701 75.9087 26.9697 75.9277C26.9696 75.9372 26.9713 75.9427 26.9727 75.9453C26.9735 75.9469 26.9749 75.9471 26.9766 75.9473C26.9794 75.9475 26.9843 75.9468 26.9922 75.9434C27.0005 75.9397 27.0112 75.9336 27.0234 75.9248C27.0726 75.8895 27.147 75.8152 27.2461 75.7021C27.3449 75.5894 27.4676 75.4388 27.6123 75.251C27.9018 74.8754 28.2802 74.352 28.7363 73.6885C29.7328 72.2561 31.6528 70.2013 33.7012 68.2773C35.7495 66.3535 37.928 64.5589 39.4434 63.6455C42.9289 61.5293 48.0741 59.4538 51.0215 58.9141C55.6715 58.0837 60.8216 59.7856 63.2314 62.9434C66.2227 66.8901 66.2823 72.9217 63.1553 81.7324C60.028 90.5439 53.7116 102.14 43.9424 117.219C42.2727 119.811 40.9971 121.831 40.0781 123.406C39.1591 124.981 38.5977 126.111 38.3545 126.923C38.1113 127.735 38.188 128.226 38.5381 128.53C38.714 128.683 38.9605 128.79 39.2734 128.866C39.5864 128.943 39.965 128.989 40.4053 129.021L42.0137 129.145L43.4199 125.917C44.1674 124.132 47.445 117.743 50.7217 111.688C53.5891 106.388 56.71 100.422 58.2236 97.374L58.7686 96.2568C64.163 84.6795 75.4502 75.2184 87.1943 72.4795C91.842 71.3799 95.2492 71.8875 97.3232 73.9199C99.397 75.9521 100.133 79.5041 99.4482 84.4834C98.6182 90.7499 96.8334 95.3564 89.0762 111.161C83.1233 123.336 79.743 130.616 77.7988 136.392C75.855 142.166 75.347 146.438 75.1396 152.597C75.0152 156.247 75.0154 158.445 75.2744 160.004C75.5332 161.562 76.0506 162.482 76.9619 163.58C77.4585 164.159 78.2973 164.833 79.0537 165.32C79.4317 165.564 79.7886 165.76 80.0713 165.875C80.2127 165.932 80.335 165.969 80.4316 165.981Z" fill="#161616" stroke="#161616" stroke-width="0.0278383"/>
<path d="M30.6602 96.0786C32.5053 96.6383 33.9755 96.8352 35.0977 96.6646C36.2187 96.494 36.9922 95.9571 37.4463 95.0493V95.0483C37.6641 94.6439 37.8227 94.3337 37.915 94.1069C37.9612 93.9935 37.9903 93.9013 38.0029 93.8296C38.0156 93.7574 38.0104 93.7087 37.9912 93.6782C37.9728 93.649 37.9387 93.6326 37.8828 93.6333C37.8268 93.6341 37.7518 93.6523 37.6562 93.686C37.5606 93.7199 37.4457 93.7698 37.3105 93.8345L36.8428 94.0718C33.4983 95.7958 30.1216 95.1733 27.7529 93.106C25.3845 91.0387 24.0248 87.5279 24.71 83.479C24.8448 82.691 24.9355 82.0638 24.9854 81.6079C25.0103 81.38 25.0253 81.195 25.0303 81.0542C25.0352 80.913 25.0302 80.8177 25.0166 80.7681C25.0133 80.7561 25.0094 80.7473 25.0059 80.7417C25.0024 80.7364 24.9995 80.7343 24.998 80.7339C24.9969 80.7336 24.9942 80.7339 24.9893 80.7368C24.9842 80.7399 24.9773 80.7451 24.9697 80.7544C24.9387 80.7926 24.898 80.8782 24.8477 81.0132C24.7475 81.282 24.6131 81.7427 24.4473 82.4058C23.8256 84.9754 23.8664 87.9184 24.6123 90.4048C25.3989 93.0545 27.6766 95.2085 30.6592 96.0786H30.6602Z" fill="#161616" stroke="#161616" stroke-width="0.0278383"/>
<path d="M24.8003 81.739C25.1529 80.2198 25.43 79.3772 26.0479 77.9452C26.7003 76.4334 27.1516 75.6113 28.0767 74.2493" stroke="#161616" stroke-width="0.250545"/>
</svg>
