<svg width="15" height="12" viewBox="0 0 15 12" fill="none" xmlns="http://www.w3.org/2000/svg">
<path d="M14.3184 0.5C14.3497 0.500046 14.3909 0.511883 14.4307 0.555664C14.5236 0.657847 14.5236 0.842153 14.4307 0.944336L4.88477 11.4443C4.84494 11.488 4.80378 11.5 4.77246 11.5C4.74112 11.4999 4.69994 11.4881 4.66016 11.4443L0.569336 6.94434C0.476443 6.84215 0.476443 6.65785 0.569336 6.55566C0.609147 6.51188 0.650293 6.50005 0.681641 6.5C0.71297 6.5 0.75411 6.51194 0.793945 6.55566L4.40234 10.5254L4.77246 10.9326L5.14258 10.5254L14.2061 0.555664C14.2459 0.511944 14.287 0.5 14.3184 0.5Z" stroke="white"/>
</svg>
